<?xml version="1.0" encoding="utf-8"?>
<!-- Generator: Adobe Illustrator 16.0.0, SVG Export Plug-In . SVG Version: 6.00 Build 0)  -->
<!DOCTYPE svg PUBLIC "-//W3C//DTD SVG 1.1//EN" "http://www.w3.org/Graphics/SVG/1.1/DTD/svg11.dtd">
<svg version="1.1" id="Layer_1" xmlns="http://www.w3.org/2000/svg" xmlns:xlink="http://www.w3.org/1999/xlink" x="0px" y="0px"
	 width="173.25px" height="127px" viewBox="0 16.875 173.25 127" enable-background="new 0 16.875 173.25 127" xml:space="preserve"
	>
<text transform="matrix(1 0 0 1 -104.2393 405.584)" display="none" fill="#FFFFFF" enable-background="new    " font-family="'Lato-Bold'" font-size="354.0654">S</text>
<g>
	
		<linearGradient id="SVGID_1_" gradientUnits="userSpaceOnUse" x1="42.6973" y1="-3.7554" x2="90.3559" y2="-31.2711" gradientTransform="matrix(1 0 0 -1 9.04 61.5898)">
		<stop  offset="0" style="stop-color:#00DDFF"/>
		<stop  offset="1" style="stop-color:#0F7DFF"/>
	</linearGradient>
	<path fill="url(#SVGID_1_)" d="M99.163,91.979c2.835-2.453,4.253-5.974,4.253-10.564c0-2.565-0.641-4.657-1.924-6.278
		s-2.983-2.98-5.097-4.083c-2.115-1.103-4.522-2.037-7.223-2.801s-5.446-1.598-8.234-2.498c-2.791-0.899-5.534-1.98-8.234-3.24
		c-2.7-1.259-5.108-2.903-7.224-4.928c-2.065-1.978-3.729-4.441-5.001-7.384l-8.603,26.649l16.562,18.321h23.858
		C95.062,94.607,97.353,93.545,99.163,91.979z"/>
	
		<linearGradient id="SVGID_2_" gradientUnits="userSpaceOnUse" x1="70.5005" y1="34.3213" x2="116.329" y2="7.8622" gradientTransform="matrix(1 0 0 -1 9.04 61.5898)">
		<stop  offset="0" style="stop-color:#00DDFF"/>
		<stop  offset="1" style="stop-color:#0F7DFF"/>
	</linearGradient>
	<path fill="url(#SVGID_2_)" d="M84.009,26.437c-1.867,0.607-3.443,1.451-4.726,2.531c-1.281,1.08-2.238,2.375-2.869,3.882
		c-0.629,1.508-0.943,3.163-0.943,4.961c0,2.295,0.642,4.208,1.924,5.737c1.282,1.53,2.979,2.835,5.096,3.915
		c2.114,1.08,4.523,2.047,7.222,2.902c2.701,0.854,5.457,1.767,8.269,2.733c2.812,0.968,5.57,2.092,8.271,3.375
		c2.699,1.283,5.106,2.902,7.222,4.859c1.699,1.574,3.126,3.435,4.287,5.575l7.437-23.04l-16.561-18.321H89.5
		C87.434,25.623,85.602,25.918,84.009,26.437z"/>
</g>
<g enable-background="new    ">
	<path fill="#3C3C3C" d="M16.246,127.602c1.156,0,1.999-0.138,2.528-0.415c0.529-0.276,0.794-0.752,0.794-1.427
		c0-0.626-0.283-1.144-0.849-1.553c-0.566-0.409-1.499-0.854-2.799-1.336c-0.795-0.289-1.523-0.597-2.186-0.922
		c-0.662-0.324-1.234-0.704-1.715-1.138c-0.482-0.433-0.861-0.957-1.138-1.57c-0.277-0.614-0.416-1.366-0.416-2.258
		c0-1.733,0.638-3.1,1.915-4.099c1.276-0.999,3.009-1.499,5.201-1.499c1.107,0,2.167,0.103,3.178,0.307
		c1.011,0.205,1.77,0.403,2.275,0.596l-0.794,3.54c-0.482-0.217-1.096-0.416-1.842-0.597c-0.747-0.18-1.613-0.271-2.6-0.271
		c-0.891,0-1.613,0.15-2.167,0.451c-0.554,0.302-0.831,0.765-0.831,1.391c0,0.313,0.054,0.591,0.162,0.831
		c0.108,0.241,0.295,0.464,0.56,0.668c0.265,0.205,0.614,0.41,1.047,0.614c0.434,0.205,0.963,0.415,1.589,0.632
		c1.035,0.386,1.914,0.765,2.636,1.138c0.722,0.374,1.318,0.795,1.788,1.264c0.469,0.47,0.813,1.006,1.029,1.607
		c0.216,0.603,0.325,1.325,0.325,2.167c0,1.806-0.668,3.173-2.004,4.1s-3.245,1.391-5.725,1.391c-1.661,0-2.998-0.139-4.009-0.416
		c-1.011-0.276-1.722-0.499-2.131-0.668l0.758-3.647c0.65,0.266,1.427,0.518,2.33,0.759
		C14.061,127.481,15.09,127.602,16.246,127.602z"/>
	<path fill="#3C3C3C" d="M26.972,121.39c0-1.661,0.247-3.118,0.741-4.37c0.493-1.252,1.149-2.293,1.968-3.124
		c0.818-0.831,1.757-1.456,2.817-1.878c1.06-0.421,2.143-0.632,3.251-0.632c2.6,0,4.628,0.807,6.085,2.42
		c1.457,1.613,2.185,4.021,2.185,7.223c0,0.241-0.006,0.513-0.018,0.813c-0.012,0.301-0.03,0.571-0.054,0.813h-12.46
		c0.121,1.517,0.656,2.69,1.607,3.521c0.951,0.83,2.33,1.245,4.135,1.245c1.06,0,2.028-0.096,2.908-0.288
		c0.878-0.192,1.571-0.397,2.077-0.614l0.578,3.575c-0.241,0.121-0.572,0.247-0.993,0.38c-0.421,0.132-0.903,0.253-1.445,0.36
		c-0.542,0.108-1.125,0.199-1.751,0.271c-0.626,0.072-1.264,0.108-1.914,0.108c-1.662,0-3.106-0.247-4.334-0.74
		c-1.228-0.493-2.239-1.18-3.034-2.059c-0.794-0.879-1.385-1.915-1.77-3.106C27.165,124.116,26.972,122.811,26.972,121.39z
		 M39.649,119.439c0-0.602-0.084-1.174-0.253-1.716c-0.168-0.541-0.415-1.011-0.74-1.408s-0.722-0.71-1.192-0.939
		c-0.47-0.229-1.029-0.343-1.68-0.343c-0.674,0-1.264,0.127-1.77,0.379c-0.505,0.253-0.934,0.585-1.282,0.993
		c-0.349,0.41-0.62,0.88-0.813,1.409c-0.193,0.529-0.325,1.071-0.397,1.625H39.649z"/>
	<path fill="#3C3C3C" d="M47.595,121.317c0-1.396,0.217-2.702,0.65-3.918c0.433-1.216,1.053-2.27,1.86-3.161
		c0.807-0.89,1.788-1.589,2.944-2.095c1.155-0.505,2.456-0.758,3.9-0.758c1.782,0,3.467,0.325,5.056,0.975l-0.939,3.576
		c-0.505-0.217-1.078-0.397-1.715-0.542c-0.638-0.145-1.318-0.217-2.041-0.217c-1.71,0-3.01,0.536-3.901,1.607
		c-0.891,1.071-1.336,2.582-1.336,4.532c0,1.878,0.421,3.365,1.264,4.461s2.263,1.643,4.262,1.643c0.746,0,1.481-0.071,2.203-0.216
		c0.723-0.145,1.348-0.325,1.878-0.542l0.614,3.611c-0.482,0.241-1.21,0.458-2.185,0.65s-1.98,0.289-3.016,0.289
		c-1.613,0-3.016-0.247-4.208-0.74s-2.18-1.18-2.962-2.059c-0.783-0.879-1.367-1.927-1.751-3.143
		C47.788,124.057,47.595,122.738,47.595,121.317z"/>
	<path fill="#3C3C3C" d="M76.452,115.792c-0.361-0.12-0.861-0.247-1.499-0.38c-0.639-0.132-1.379-0.198-2.221-0.198
		c-0.482,0-0.993,0.049-1.535,0.145c-0.542,0.097-0.921,0.181-1.138,0.253v15.133h-4.371v-17.986
		c0.843-0.313,1.896-0.607,3.161-0.885c1.264-0.276,2.666-0.415,4.207-0.415c0.289,0,0.626,0.018,1.012,0.054
		c0.385,0.036,0.771,0.085,1.155,0.145c0.386,0.061,0.759,0.133,1.12,0.217c0.361,0.085,0.65,0.162,0.867,0.234L76.452,115.792z"/>
	<path fill="#3C3C3C" d="M79.196,121.39c0-1.661,0.247-3.118,0.74-4.37s1.15-2.293,1.969-3.124s1.757-1.456,2.817-1.878
		c1.059-0.421,2.143-0.632,3.25-0.632c2.601,0,4.629,0.807,6.086,2.42s2.186,4.021,2.186,7.223c0,0.241-0.007,0.513-0.019,0.813
		c-0.013,0.301-0.03,0.571-0.054,0.813H83.711c0.12,1.517,0.656,2.69,1.607,3.521c0.951,0.83,2.329,1.245,4.136,1.245
		c1.059,0,2.027-0.096,2.907-0.288c0.879-0.192,1.571-0.397,2.076-0.614l0.578,3.575c-0.241,0.121-0.572,0.247-0.993,0.38
		c-0.422,0.132-0.903,0.253-1.444,0.36c-0.542,0.108-1.126,0.199-1.752,0.271s-1.264,0.108-1.914,0.108
		c-1.661,0-3.106-0.247-4.334-0.74c-1.229-0.493-2.239-1.18-3.034-2.059c-0.794-0.879-1.385-1.915-1.77-3.106
		C79.389,124.116,79.196,122.811,79.196,121.39z M91.874,119.439c0-0.602-0.085-1.174-0.253-1.716
		c-0.169-0.541-0.416-1.011-0.741-1.408c-0.324-0.397-0.722-0.71-1.191-0.939c-0.47-0.229-1.029-0.343-1.68-0.343
		c-0.674,0-1.264,0.127-1.77,0.379c-0.506,0.253-0.934,0.585-1.282,0.993c-0.35,0.41-0.62,0.88-0.813,1.409
		c-0.193,0.529-0.325,1.071-0.397,1.625H91.874z"/>
	<path fill="#3C3C3C" d="M100.65,106.871l4.37-0.723v5.707h6.718v3.647h-6.718v7.692c0,1.518,0.24,2.601,0.723,3.251
		c0.48,0.65,1.3,0.975,2.455,0.975c0.795,0,1.499-0.084,2.113-0.252c0.614-0.169,1.102-0.325,1.463-0.47l0.723,3.467
		c-0.506,0.217-1.169,0.439-1.987,0.668s-1.782,0.344-2.889,0.344c-1.349,0-2.475-0.181-3.377-0.542
		c-0.903-0.361-1.62-0.885-2.149-1.571c-0.529-0.686-0.902-1.517-1.119-2.492c-0.217-0.975-0.325-2.088-0.325-3.341V106.871z"/>
	<path fill="#3C3C3C" d="M122.248,111.386c1.444,0,2.66,0.181,3.647,0.541c0.987,0.361,1.775,0.867,2.366,1.518
		c0.59,0.65,1.011,1.438,1.264,2.365c0.253,0.928,0.379,1.945,0.379,3.052v11.449c-0.674,0.145-1.691,0.319-3.052,0.523
		c-1.36,0.205-2.896,0.308-4.604,0.308c-1.132,0-2.167-0.108-3.106-0.325c-0.938-0.217-1.739-0.565-2.401-1.048
		c-0.663-0.48-1.18-1.106-1.553-1.878c-0.374-0.771-0.561-1.721-0.561-2.853c0-1.084,0.211-1.999,0.633-2.745
		c0.421-0.746,0.993-1.354,1.715-1.824c0.723-0.47,1.559-0.807,2.511-1.011c0.95-0.205,1.943-0.308,2.979-0.308
		c0.481,0,0.987,0.03,1.517,0.091s1.096,0.162,1.697,0.307v-0.723c0-0.505-0.06-0.986-0.181-1.444
		c-0.12-0.457-0.331-0.86-0.632-1.21c-0.301-0.349-0.698-0.619-1.191-0.813c-0.494-0.192-1.114-0.289-1.86-0.289
		c-1.011,0-1.938,0.072-2.781,0.217s-1.529,0.313-2.059,0.506l-0.541-3.54c0.553-0.192,1.359-0.385,2.419-0.577
		S121.044,111.386,122.248,111.386z M122.609,127.674c1.348,0,2.371-0.072,3.069-0.217v-4.839c-0.24-0.072-0.59-0.145-1.047-0.217
		c-0.458-0.072-0.964-0.108-1.517-0.108c-0.482,0-0.97,0.036-1.463,0.108c-0.494,0.072-0.939,0.205-1.337,0.397
		s-0.717,0.464-0.957,0.813c-0.241,0.349-0.361,0.789-0.361,1.318c0,1.035,0.325,1.751,0.976,2.148S121.501,127.674,122.609,127.674
		z"/>
	<path fill="#3C3C3C" d="M146.013,115.792c-0.361-0.12-0.861-0.247-1.499-0.38c-0.639-0.132-1.379-0.198-2.221-0.198
		c-0.482,0-0.993,0.049-1.535,0.145c-0.542,0.097-0.921,0.181-1.138,0.253v15.133h-4.37v-17.986c0.843-0.313,1.896-0.607,3.16-0.885
		c1.264-0.276,2.666-0.415,4.207-0.415c0.289,0,0.626,0.018,1.012,0.054c0.385,0.036,0.771,0.085,1.155,0.145
		c0.386,0.061,0.759,0.133,1.12,0.217c0.361,0.085,0.65,0.162,0.867,0.234L146.013,115.792z"/>
	<path fill="#3C3C3C" d="M165.877,111.855c-1.947,7.175-4.207,13.676-6.777,19.503c-0.482,1.083-0.977,2.01-1.482,2.78
		c-0.507,0.771-1.073,1.409-1.699,1.915c-0.627,0.505-1.326,0.872-2.098,1.102c-0.771,0.229-1.663,0.343-2.676,0.343
		c-0.675,0-1.344-0.072-2.006-0.217c-0.663-0.145-1.163-0.302-1.501-0.47l0.795-3.503c0.87,0.337,1.729,0.506,2.576,0.506
		c1.136,0,2.025-0.271,2.666-0.813c0.642-0.541,1.203-1.378,1.688-2.51c-1.379-2.648-2.703-5.538-3.973-8.668
		s-2.399-6.452-3.391-9.968h4.659c0.241,1.011,0.537,2.106,0.888,3.286s0.731,2.378,1.143,3.594s0.846,2.426,1.305,3.63
		s0.919,2.323,1.378,3.358c0.767-2.143,1.486-4.424,2.157-6.844s1.282-4.762,1.834-7.024H165.877z"/>
</g>
</svg>
